<svg width="26.94px" height="34.09px" xmlns="http://www.w3.org/2000/svg" viewBox="0 0 26.94 34.09">
	<path d="M13.62,0l-.15,0L0,1.41V26.07l13.47,8,13.43-8,0,0V1.41ZM25,12.13,13.49,5.33v-.1l-.08,0-.09-.06v.11L1.92,12.12v-9L13.47,1.94,25,3.15ZM13.4,6.79,24.92,13.5l-4.48,2.64-7.09-4.22v1.41l5.9,3.52-.86.5-5-3v1.42l3.83,2.27-.79.52-3-1.78V18.2l1.85,1.09-1.8,1.08L2,13.62ZM1.92,15.13l11.42,6.79v1L5.41,18.23l0,1.42,8,4.8,0,1.07-8-4.74V22.2l8,4.82,0,0,8.14-4.87V17L25,15V25L13.47,31.85,1.92,25Z"/>
</svg>
